<?xml version="1.0" encoding="UTF-8" standalone="no"?>
<!DOCTYPE svg PUBLIC "-//W3C//DTD SVG 1.1//EN" "http://www.w3.org/Graphics/SVG/1.1/DTD/svg11.dtd">
<svg width="100%" height="100%" viewBox="0 0 133 134" version="1.1" xmlns="http://www.w3.org/2000/svg" xmlns:xlink="http://www.w3.org/1999/xlink" xml:space="preserve" xmlns:serif="http://www.serif.com/" style="fill-rule:evenodd;clip-rule:evenodd;stroke-linejoin:round;stroke-miterlimit:2;">
    <g transform="matrix(4.16667,0,0,4.16667,0,0)">
        <g transform="matrix(1,0,0,1,0,-0.00133448)">
            <g transform="matrix(0.0657072,0,0,0.067591,2.88862,0.484223)">
                <path d="M322.258,397.025C321.459,397.426 320.978,397.694 320.223,398.069C319.95,398.176 319.481,398.044 318.953,397.758C319.328,396.331 320.231,395.191 321.134,394.051C326.558,394.574 326.805,389.005 330.243,386.244C331.453,385.151 332.227,384.492 333.227,383.896C333.453,383.96 333.922,383.922 334.111,384.111C334.439,384.411 334.579,384.522 334.534,384.858C333.88,385.689 333.41,386.295 332.94,386.9C330.83,389.559 328.72,392.218 326.297,395.029C324.848,395.751 323.712,396.321 322.258,397.025Z" style="fill:rgb(255,189,10);fill-rule:nonzero;stroke:rgb(255,189,10);stroke-width:5.75px;"/>
                <path d="M347.08,372.081C346.146,373.17 345.213,374.259 344.118,375.643C342.557,376.622 341.157,377.306 339.224,377.844C338.563,377.574 338.435,377.449 338.533,377.075C340.529,375.561 342.3,374.298 344.337,372.929C345.172,372.319 345.74,371.813 346.501,371.501C346.823,371.823 346.951,371.952 347.08,372.081Z" style="fill:rgb(255,189,10);fill-rule:nonzero;stroke:rgb(255,189,10);stroke-width:5.75px;"/>
                <path d="M338.033,381.644C336.98,382.727 336.073,383.491 334.943,384.444C334.579,384.522 334.439,384.411 334.148,383.798C334.352,382.562 334.707,381.829 335.356,380.96C336.536,379.657 337.422,378.491 338.307,377.325C338.435,377.449 338.563,377.574 338.883,377.885C338.776,379.157 338.478,380.241 338.033,381.644Z" style="fill:rgb(255,189,10);fill-rule:nonzero;stroke:rgb(255,189,10);stroke-width:5.75px;"/>
                <path d="M202.727,56.665C200.682,60.03 198.351,63.613 195.678,67.758C194.939,71.221 194.543,74.121 194.092,77.342C194.012,78.095 193.985,78.527 193.637,78.99C192.885,79.063 192.456,79.105 191.707,79.259C191.6,80.328 191.812,81.284 192.179,82.535C192.614,83.872 192.894,84.915 193.094,86.353C193.672,88.843 194.332,90.938 195.011,93.4C195.771,95.37 196.223,97.218 197.326,98.512C198.566,99.968 200.393,100.925 201.985,102.461C203.35,104.154 204.695,105.484 206.257,106.882C206.474,106.95 206.924,107.011 207.032,107.263C207.435,107.722 207.731,107.928 208.022,108.532C208.615,109.634 209.102,110.499 209.835,111.014C211.861,112.435 213.989,113.709 215.797,115.336C214.359,115.049 213.2,114.467 211.847,113.563C210.409,113.229 209.166,113.218 207.636,113.048C206.558,111.911 205.766,110.933 204.981,109.969C204.987,109.983 204.969,109.977 204.904,109.745C204.642,109.199 204.362,109.086 203.764,109.107C203.526,109.039 203.047,108.918 202.933,108.658C202.249,107.918 201.678,107.44 200.996,106.709C200.338,105.991 199.79,105.526 199.242,105.06C198.158,103.605 197.074,102.151 195.927,100.115C195.718,99.211 195.471,99.02 195.07,98.635C194.955,97.874 194.893,97.439 194.824,96.765C194.662,96.22 194.415,96.031 193.953,95.674C193.242,94.565 192.656,93.743 192.017,92.686C191.964,92.451 191.813,91.992 191.777,91.701C191.428,90.917 191.116,90.424 190.859,89.632C190.63,88.842 190.345,88.35 190.023,87.538C189.628,86.717 189.27,86.216 188.933,85.378C188.913,84.371 188.871,83.701 188.88,82.77C188.899,82.335 188.868,82.161 188.902,81.681C188.926,80.962 188.885,80.549 188.916,79.872C189.025,79.43 189.061,79.251 189.098,79.073C189.719,77.979 190.341,76.885 190.984,75.47C191.348,73.702 191.69,72.254 192.327,70.264C192.777,69.161 192.932,68.599 193.343,67.884C193.677,67.159 193.755,66.587 193.832,66.015C195.219,64.597 196.607,63.179 198.046,61.426C199.546,59.688 200.994,58.285 202.727,56.665Z" style="fill:rgb(255,189,10);fill-rule:nonzero;stroke:rgb(255,189,10);stroke-width:5.75px;"/>
                <path d="M104.008,414.348C103.872,413.844 103.91,413.675 103.893,413.252C103.58,412.513 103.324,412.028 102.95,411.275C102.217,409.249 101.6,407.489 100.908,405.375C100.875,404.56 100.919,404.1 100.893,403.299C100.875,400.924 100.926,398.891 100.909,396.424C100.772,395.399 100.701,394.808 100.351,394.082C100.037,392.89 100.004,391.834 99.962,390.017C99.249,387.17 98.545,385.084 97.841,382.998C97.88,382.83 97.918,382.662 97.961,381.91C97.922,380.879 97.878,380.432 97.834,379.984C97.883,379.239 97.931,378.493 98.035,377.106C98.336,375.963 98.582,375.463 98.895,374.633C98.916,373.862 98.871,373.419 98.88,372.734C98.934,372.492 98.826,372.009 98.901,371.643C99.018,370.531 99.061,369.786 99.103,369.04C99.72,367.916 100.338,366.791 100.893,365.331C101.314,362.839 101.798,360.683 102.667,358.753C102.786,360.872 102.52,362.764 102.481,365.212C99.832,372.347 98.755,379.084 101.133,386.47C101.888,392.304 102.243,397.805 103.114,403.223C103.547,405.909 104.93,408.442 105.93,411.434C108.207,415.335 106.585,420.551 111.002,423.328C111.036,423.545 111.184,423.959 111.118,424.315C113.59,427.885 116.128,431.1 118.482,434.504C118.175,434.822 118.053,434.949 117.93,435.076C115.857,433.142 113.784,431.208 111.412,429.115C110.765,428.484 110.417,428.012 109.95,427.266C109.445,426.07 109.059,425.148 108.393,424.093C107.629,423.05 107.146,422.139 106.378,421.091C105.456,418.864 104.819,416.773 104.008,414.348Z" style="fill:rgb(255,189,10);fill-rule:nonzero;stroke:rgb(255,189,10);stroke-width:5.75px;"/>
                <path d="M121.744,435.975C121.825,436.427 121.906,436.878 122.02,437.675C121.622,438.067 121.191,438.114 120.387,437.989C119.39,437.084 118.766,436.352 118.036,435.348C118.053,434.949 118.175,434.822 118.709,434.699C119.995,435.128 120.87,435.551 121.744,435.975Z" style="fill:rgb(255,189,10);fill-rule:nonzero;stroke:rgb(255,189,10);stroke-width:5.75px;"/>
                <path d="M288.614,416.893C291.488,416.268 293.987,415.711 296.512,415.583C295.261,416.684 293.984,417.357 292.345,418.11C287.076,420.884 282.168,423.58 277.079,426.594C276.898,426.913 276.428,427.029 275.942,427.079C275.274,427.408 275.092,427.685 274.911,427.962C274.911,427.962 274.971,427.943 274.955,427.915C274.939,427.887 274.468,428.002 274.239,428.081C272.519,428.649 271.027,429.137 269.241,429.321C272.142,427.283 275.462,425.741 278.497,423.762C281.187,422.008 283.534,419.733 286.096,417.77C286.676,417.326 287.518,417.222 288.614,416.893Z" style="fill:rgb(255,189,10);fill-rule:nonzero;stroke:rgb(255,189,10);stroke-width:5.75px;"/>
                <path d="M338.073,264.075C337.243,265 336.413,265.926 335.065,267.017C334.235,267.339 334.04,267.585 333.618,267.986C331.831,269.997 330.385,271.945 328.55,273.926C327.119,274.016 326.077,274.072 324.794,274.154C324.245,274.338 324.043,274.581 323.626,274.961C322.8,275.374 322.295,275.739 321.507,276.095C320.784,276.369 320.344,276.651 319.69,277.042C319.206,277.351 319.035,277.616 318.724,277.984C318.486,278.024 318.022,278.157 317.674,278.239C315.545,278.923 313.762,279.525 311.694,280.192C310.906,280.845 310.404,281.433 309.667,282.041C309.432,282.06 308.97,282.158 308.628,282.114C307.829,282.11 307.372,282.15 306.696,282.152C306.478,282.114 306.037,282.169 305.749,282.2C304.969,282.538 304.477,282.846 303.743,283.115C303.501,283.075 303.015,283.15 302.671,283.078C301.222,282.715 300.117,282.422 298.707,281.964C297.291,280.578 296.181,279.358 294.808,278.107C294.371,278.1 294.197,278.124 293.674,278.099C292.217,277.746 291.108,277.441 289.646,277.049C288.479,275.302 287.666,273.64 286.748,271.636C280.964,265.423 286.854,257.597 283.282,251.111C279.099,253.15 275.024,255.136 270.616,257.079C269.173,257.731 268.064,258.427 266.699,259.156C266.249,259.468 266.057,259.747 265.63,260.115C265.204,260.476 265.011,260.748 264.503,261.04C263.441,261.436 262.695,261.811 261.719,262.139C261.488,262.091 261.021,262.149 260.733,262.233C259.946,263.187 259.447,264.056 258.655,264.968C257.896,265.32 257.429,265.629 256.667,265.978C255.901,266.328 255.43,266.637 254.657,266.985C253.878,267.347 253.402,267.67 252.699,268.021C252.471,268.048 252.026,268.16 251.779,268.198C251.334,268.495 251.136,268.754 250.716,269.094C250.219,269.363 250.042,269.619 249.711,269.989C249.295,270.082 249.131,270.128 248.665,270.24C247.521,271.211 246.68,272.116 245.539,273.031C244.777,273.366 244.316,273.691 243.634,274.111C243.158,274.417 242.984,274.682 242.608,275.128C241.573,275.557 240.82,275.858 239.796,276.102C239.339,276.035 239.155,276.024 238.927,275.649C240.024,273.644 241.048,271.903 242.345,270.397C243.183,269.425 244.421,268.797 245.674,267.836C247.143,267.042 248.417,266.428 250.07,265.85C251.295,265.533 252.143,265.179 252.97,264.901C252.948,264.976 252.802,264.919 253.174,264.906C257.908,262.201 262.269,259.51 266.663,256.629C266.841,256.226 266.973,256.006 267.32,255.88C267.712,255.944 267.875,255.906 268.32,255.855C269.056,255.518 269.509,255.193 270.297,254.867C271.671,253.518 272.711,252.171 274.086,250.898C276.281,249.639 278.14,248.305 280.001,246.987C280.002,247.004 279.971,246.991 280.237,246.957C280.676,246.63 280.848,246.336 281.316,246.143C282.383,246.502 283.155,246.76 284.031,247.23C284.325,247.741 284.596,247.869 285.3,247.914C286.082,248.991 286.511,249.981 286.696,251.124C286.361,251.825 286.27,252.373 286.146,253.203C286.144,253.671 286.174,253.858 286.239,254.315C286.559,255.052 286.846,255.518 287.082,256.399C286.764,257.762 286.448,258.698 286.239,259.658C284.771,266.397 289.032,274.331 295.294,275.902C298.923,278.928 302.01,282.391 307.107,279.579C307.299,279.473 307.705,279.758 308.351,279.77C313.132,277.482 317.574,275.285 322.244,272.969C322.666,272.573 322.859,272.297 323.373,271.998C324.117,271.923 324.541,271.871 325.333,271.88C328.811,269.32 331.921,266.699 335.356,264.042C336.292,263.837 336.903,263.667 337.654,263.642C337.794,263.786 338.073,264.075 338.073,264.075Z" style="fill:rgb(255,189,10);fill-rule:nonzero;stroke:rgb(255,189,10);stroke-width:5.75px;"/>
                <path d="M348.186,247.632C348.086,248.396 348.029,248.802 347.717,249.387C347.305,250.156 347.149,250.745 346.957,251.639C346.337,252.765 345.755,253.585 345.036,254.686C344.267,256.083 343.635,257.2 342.949,258.647C341.512,260.638 340.128,262.299 338.409,264.018C338.073,264.075 337.794,263.786 337.831,263.367C340.101,258.249 342.334,253.551 344.855,248.872C345.46,248.302 345.778,247.712 346.405,246.921C348.134,242.528 349.15,238.139 351.076,234.194C353.469,229.291 356.614,224.756 359.434,220.061C358.291,223.213 357.273,226.417 355.978,229.504C353.478,235.462 350.822,241.355 348.186,247.632Z" style="fill:rgb(255,189,10);fill-rule:nonzero;stroke:rgb(255,189,10);stroke-width:5.75px;"/>
                <path d="M372.457,318.029C373.038,317.788 373.417,317.704 373.933,317.355C374.976,316.917 375.882,316.744 376.971,316.268C377.585,315.977 378.014,315.989 378.983,315.965C379.523,315.928 379.978,315.841 380.234,315.882C380.661,315.898 380.832,315.872 381.003,315.846C384.185,318.351 383.908,320.508 380.16,322.631C379.4,324.37 378.829,325.814 377.869,327.68C377.293,328.384 377.107,328.666 376.92,328.947C376.92,328.947 376.949,329.004 376.62,329.13C373.865,331.858 368.844,330.621 367.675,335.082C365.868,336.115 364.061,337.148 363.086,337.705C364.174,340.195 365.096,342.309 366.091,344.821C365.797,345.618 365.431,346.017 364.971,346.672C364.299,347.422 363.722,347.915 363.146,348.697C364.404,352.744 365.228,356.37 360.148,358.567C359.699,358.931 359.438,358.994 358.634,358.846C358.089,358.635 358.149,358.211 358.434,358.006C359.52,356.529 360.322,355.258 361.111,353.66C360.724,352.617 360.35,351.901 359.693,351.03C359.312,350.264 359.214,349.653 359.423,348.864C360,347.767 360.321,346.859 360.533,345.926C361.031,343.738 360.712,343.497 357.707,343.94C357.287,344.043 357.121,344.09 356.628,344.177C354.753,346.39 353.348,346.419 352.237,343.602C353.722,342.856 355.058,342.336 356.442,342.056C359.284,341.481 359.455,340.089 358.019,337.719C360.456,335.556 362.716,333.698 365.308,331.8C367.11,330.839 368.579,329.917 370.443,328.993C374.608,329.457 376.392,326.781 375.661,324.085C374.682,320.473 371.301,321.992 368.5,322.496C368.176,322.175 368.047,322.046 367.955,321.712C367.992,321.507 368.078,321.1 368.078,321.1C368.859,320.441 369.64,319.783 370.694,318.979C371.397,318.619 371.826,318.403 372.457,318.029Z" style="fill:rgb(255,189,10);fill-rule:nonzero;stroke:rgb(255,189,10);stroke-width:5.75px;"/>
                <path d="M358.457,358.911C358.475,359.076 358.563,359.347 358.5,359.389C353.717,362.555 351.233,367.665 347.451,372.035C346.951,371.952 346.823,371.823 346.735,371.252C347.552,369.812 348.328,368.814 349.861,366.842C347.393,367.191 346.036,367.509 344.693,367.459C344.446,367.45 344.255,365.945 344.431,365.066C349.305,362.698 353.786,360.394 358.454,358.263C358.58,358.594 358.519,358.753 358.457,358.911Z" style="fill:rgb(255,189,10);fill-rule:nonzero;stroke:rgb(255,189,10);stroke-width:5.75px;"/>
                <path d="M359.712,220.363C360.406,217.906 361.362,215.811 362.708,212.86C360.53,213.368 359.448,213.621 358.365,213.873C358.157,213.55 357.948,213.226 357.74,212.902C359.103,211.836 360.467,210.769 362.273,209.705C362.839,209.834 362.962,209.959 363.067,210.465C363.342,212.539 363.637,214.234 363.932,215.929C363.614,216.397 363.296,216.865 362.923,217.637C361.903,218.869 360.938,219.797 359.712,220.363Z" style="fill:rgb(255,189,10);fill-rule:nonzero;stroke:rgb(255,189,10);stroke-width:5.75px;"/>
                <path d="M312.239,402.309C314.119,400.476 316.288,398.94 318.755,397.695C316.878,399.526 314.703,401.065 312.239,402.309Z" style="fill:rgb(255,189,10);fill-rule:nonzero;stroke:rgb(255,189,10);stroke-width:5.75px;"/>
                <path d="M304.216,409.308C305.465,407.476 306.98,405.947 308.769,404.701C308.233,406.274 307.424,407.566 306.308,409.01C305.495,409.313 304.989,409.463 304.216,409.308Z" style="fill:rgb(255,189,10);fill-rule:nonzero;stroke:rgb(255,189,10);stroke-width:5.75px;"/>
                <path d="M309.363,405.017C309.74,404.03 310.498,403.017 311.637,401.98C311.26,402.968 310.502,403.978 309.363,405.017Z" style="fill:rgb(255,189,10);fill-rule:nonzero;stroke:rgb(255,189,10);stroke-width:5.75px;"/>
                <path d="M375.085,134.04C378.164,132.417 381.243,130.794 384.66,128.999C386.945,129.388 388.891,129.949 390.836,130.51C389.8,132.598 388.944,134.806 387.669,136.737C386.691,138.22 385.185,139.354 383.394,140.497C384.863,137.47 386.852,134.59 388.859,131.681C384.151,130.704 379.764,132.502 375.685,137.008C374.918,137.698 374.426,138.289 373.735,138.917C373.536,138.953 373.131,138.955 373.068,138.613C372.338,137.902 371.671,137.533 370.652,137.205C368.716,138.181 367.13,139.118 365.544,140.054C368.731,132.71 364.353,129.153 359.16,125.564C357.825,123.369 356.586,121.524 355.527,119.49C355.827,119.175 355.947,119.049 356.38,118.959C357.11,119.04 357.528,119.085 358.097,119.428C359.823,121.137 361.397,122.548 362.964,124.04C362.956,124.121 362.97,124.283 362.837,124.559C362.893,125.494 362.892,126.551 363.302,126.748C367.119,128.575 368.852,131.484 367.996,136.018C369.605,135.54 370.803,135.185 372.347,134.894C373.49,134.653 374.288,134.346 375.085,134.04Z" style="fill:rgb(255,189,10);fill-rule:nonzero;stroke:rgb(255,189,10);stroke-width:5.75px;"/>
                <path d="M374.121,146.061C376.315,144.711 378.508,143.361 381.095,141.998C381.4,142.427 381.311,142.869 381.049,143.973C379.586,146.083 378.295,147.531 376.703,149.079C375.546,150.1 374.691,151.022 373.607,151.998C373.082,152.167 372.825,152.34 372.443,152.42C372.279,152.268 371.948,151.967 371.88,151.674C371.557,150.643 371.302,149.906 371.28,149.067C371.692,148.689 371.871,148.413 372.33,148.021C373.114,147.29 373.618,146.676 374.121,146.061Z" style="fill:rgb(255,189,10);fill-rule:nonzero;stroke:rgb(255,189,10);stroke-width:5.75px;"/>
                <path d="M362.556,209.498C362.908,208.704 363.421,208.121 364.349,207.129C366.562,204.834 369.526,203.306 366.984,199.749C367.948,198.826 368.756,198.185 369.692,197.678C369.819,197.811 370.075,198.078 370.075,198.078C370.184,198.621 370.294,199.165 370.676,199.782C372.312,201 373.675,202.145 375.031,203.923C374.961,204.721 374.9,204.887 374.838,205.052C374.258,205.517 373.678,205.982 372.997,206.708C371.465,207.59 370.034,208.211 367.927,208.927C365.863,209.377 364.474,209.731 363.086,210.085C362.962,209.959 362.839,209.834 362.556,209.498Z" style="fill:rgb(255,189,10);fill-rule:nonzero;stroke:rgb(255,189,10);stroke-width:5.75px;"/>
                <path d="M386.074,167.074C386.066,167.511 386.057,167.948 386.111,168.707C385.854,169.493 385.534,169.956 385.181,170.701C385.237,171.574 385.326,172.166 385.687,172.914C386.319,174.154 386.68,175.239 387.114,176.669C386.191,178.47 385.195,179.926 384.049,181.68C381.488,184.903 379.079,187.828 376.239,190.786C375.809,190.818 375.546,190.568 375.67,190.265C376.219,188.666 376.643,187.369 377.366,185.922C379.043,184.418 380.814,183.277 381.702,181.654C382.805,179.64 383.177,177.227 383.776,174.632C384.264,171.664 384.84,169.051 385.581,166.596C385.746,166.755 386.074,167.074 386.074,167.074Z" style="fill:rgb(255,189,10);fill-rule:nonzero;stroke:rgb(255,189,10);stroke-width:5.75px;"/>
                <path d="M375.94,190.943C373.968,193.112 375.578,197.939 370.467,198.049C370.075,198.078 369.819,197.811 369.871,197.393C371.797,194.839 373.672,192.703 375.546,190.568C375.546,190.568 375.809,190.818 375.94,190.943Z" style="fill:rgb(255,189,10);fill-rule:nonzero;stroke:rgb(255,189,10);stroke-width:5.75px;"/>
                <path d="M336.816,101.986C338.331,103.557 339.847,105.127 341.755,107.041C342.287,107.63 342.497,107.764 342.888,108.082C343.62,108.864 344.241,109.352 345.143,109.913C345.613,110.006 345.805,110.027 346.001,110.029C346.007,110.012 345.978,109.991 346.032,110.258C346.384,110.711 346.683,110.898 346.996,111.065C347.01,111.045 346.97,111.023 347.031,111.275C347.39,111.628 347.688,111.728 348.197,111.903C348.408,111.978 348.85,112.045 348.934,112.278C349.191,112.827 349.457,113.006 349.924,113.287C350.324,113.705 350.615,113.882 351.007,114.294C351.408,114.626 351.709,114.723 352.272,114.952C353.018,115.412 353.499,115.741 354.068,116.302C354.354,116.816 354.623,116.996 355.061,117.328C355.464,118.028 355.765,118.476 356.066,118.923C355.947,119.049 355.827,119.175 355.254,119.292C353.258,118.853 351.716,118.424 350.1,117.632C348.708,116.477 347.391,115.685 345.927,114.577C344.706,113.23 343.63,112.2 342.215,111.117C339.552,109.055 337.229,107.047 334.911,104.766C334.627,104.287 334.338,104.082 333.861,103.571C332.51,102.742 331.322,102.268 330.188,101.688C326.456,99.777 322.743,97.828 318.784,95.422C318.639,94.344 318.735,93.738 319.077,93.431C319.58,93.763 319.837,93.797 320.426,93.892C321.209,93.911 321.659,93.868 322.108,93.825C325.848,96.2 329.588,98.575 333.975,101.037C335.354,101.412 336.085,101.699 336.816,101.986Z" style="fill:rgb(255,189,10);fill-rule:nonzero;stroke:rgb(255,189,10);stroke-width:5.75px;"/>
                <path d="M301.328,412.031C301.748,411.035 302.498,410.021 303.628,408.981C303.765,409.716 303.522,410.477 303.127,411.569C302.535,411.937 302.096,411.975 301.328,412.031Z" style="fill:rgb(255,189,10);fill-rule:nonzero;stroke:rgb(255,189,10);stroke-width:5.75px;"/>
                <path d="M298.267,414.32C298.728,413.569 299.454,412.588 300.62,411.796C300.217,412.687 299.374,413.388 298.267,414.32Z" style="fill:rgb(255,189,10);fill-rule:nonzero;stroke:rgb(255,189,10);stroke-width:5.75px;"/>
                <path d="M182.013,219.373C186.133,217.18 190.008,215.176 194.044,213.584C195.651,212.95 197.617,213.228 200.063,212.911C202.078,212.155 203.449,211.579 205.167,210.959C206.463,210.309 207.413,209.701 208.681,209.061C210.238,208.301 211.476,207.575 213.109,206.908C213.768,206.938 214.031,206.909 214.565,206.849C215.261,206.585 215.686,206.353 216.46,206.06C218.873,204.952 220.936,203.906 223.318,202.792C224.765,202.141 225.894,201.557 227.091,201.332C224.767,203.512 222.374,205.334 219.66,207.115C218.204,207.604 217.07,208.134 215.587,208.77C214.784,209.629 214.331,210.382 213.551,211.084C211.485,211.194 209.745,211.355 207.695,211.711C206.492,212.284 205.601,212.663 204.435,213.02C203.755,213.288 203.349,213.577 202.612,213.927C201.176,214.621 200.071,215.252 198.606,215.925C197.34,215.695 196.225,214.943 195.562,215.231C191.32,217.072 187.177,219.141 183.001,221.135C182.825,221.091 182.648,221.047 182.2,220.999C181.896,220.573 181.864,220.15 182.013,219.373Z" style="fill:rgb(255,189,10);fill-rule:nonzero;stroke:rgb(255,189,10);stroke-width:5.75px;"/>
                <path d="M300.921,62.824C303.029,62.485 305.136,62.145 307.643,61.902C307.051,63.441 306.06,64.886 304.645,66.519C301.12,67.447 298.02,68.187 294.523,68.956C290.806,69.645 287.462,70.203 284.181,71.019C283.063,71.297 281.493,72.05 281.251,72.903C281.021,73.714 282.022,75.266 282.906,75.905C284.079,76.753 285.877,76.746 287.033,77.608C290.357,80.086 296.743,77.242 297.571,84.184C298.917,83.387 299.984,82.755 301.052,82.123C303.641,83.869 306.229,85.615 309.108,88.048C313.191,88.933 317.184,88.704 318.591,93.574C316.593,92.739 314.424,90.219 313.372,90.621C308.948,92.31 307.454,88.802 304.85,86.567C303.128,86.486 301.589,86.699 299.894,86.612C298.505,85.856 297.271,85.398 296.001,84.565C294.29,83.51 292.616,82.831 290.584,82.076C287.849,80.981 285.473,79.962 282.905,78.595C279.508,77.798 276.302,77.349 273.061,76.561C272.725,75.166 272.423,74.112 272.505,73.037C276.269,71.593 279.648,70.168 283.449,68.815C288.195,68.909 292.717,69.398 295.198,64.128C296.732,63.62 297.903,63.214 299.381,62.863C300.098,62.886 300.51,62.855 300.921,62.824Z" style="fill:rgb(255,189,10);fill-rule:nonzero;stroke:rgb(255,189,10);stroke-width:5.75px;"/>
                <path d="M387.961,166.605C387.503,166.971 387.094,166.993 386.38,167.044C386.074,167.074 385.746,166.755 385.789,166.346C386.002,164.928 386.171,163.92 386.34,162.911C385.49,162.853 384.579,162.568 383.801,162.778C380.677,163.623 377.593,164.621 374.173,165.66L374.173,160.519C369.743,161.769 369.743,161.769 368.991,157.699C369.399,156.604 369.641,155.796 369.941,154.669C370.649,153.556 371.298,152.761 371.948,151.967C371.948,151.967 372.279,152.268 372.315,152.71C374.243,156.02 376.135,158.888 378.394,162.313C379.286,161.536 380.176,160.761 381.372,159.96C382.161,159.612 382.645,159.29 383.429,158.823C385.156,157.397 386.581,156.116 388.006,154.835C389.347,156.644 390.688,158.453 392.094,160.636C390.777,162.76 389.394,164.51 387.961,166.605Z" style="fill:rgb(255,189,10);fill-rule:nonzero;stroke:rgb(255,189,10);stroke-width:5.75px;"/>
                <path d="M57.609,297.192C57.95,297.119 58.011,297.582 58.07,298.061C58.406,298.731 58.683,298.921 58.959,299.111C58.959,299.111 58.951,299.047 58.923,299.063C56.835,299.556 54.775,300.034 52.337,300.275C52.116,299.729 52.272,299.419 52.668,298.99C54.361,298.335 55.815,297.8 57.609,297.192Z" style="fill:rgb(255,189,10);fill-rule:nonzero;stroke:rgb(255,189,10);stroke-width:5.75px;"/>
                <path d="M317.051,347.931C316.895,348.563 316.925,349.598 316.557,349.769C309.523,353.012 302.442,356.154 295.171,359.622C290.58,357.705 289.654,361.719 287.396,364.042C286.692,364.054 286.396,364.16 286.08,364.687C283.135,365.674 280.277,366.429 277.005,367C276.788,366.235 276.984,365.655 277.48,365.023C278.183,364.926 278.586,364.883 279.349,364.903C281.488,364.014 283.266,363.061 285.29,362.026C285.676,361.649 285.816,361.353 286.023,361.096C286.09,361.135 286.206,361.03 286.418,360.923C286.875,360.596 287.043,360.329 287.346,359.927C287.815,359.652 287.988,359.406 288.393,358.939C290.167,358.194 291.626,357.61 293.466,357.015C294.608,356.97 295.37,356.937 296.442,356.897C297.159,356.872 297.567,356.853 298.327,356.801C304.803,353.822 310.927,350.876 317.051,347.931Z" style="fill:rgb(255,189,10);fill-rule:nonzero;stroke:rgb(255,189,10);stroke-width:5.75px;"/>
                <path d="M259.293,376.031C254.85,376.81 250.68,377.203 246.64,378.151C244.072,378.754 241.697,380.181 238.764,381.236C238.293,381.233 237.931,380.931 237.973,380.605C238.932,379.118 239.85,377.957 241.146,376.854C242.029,376.887 242.534,376.862 243.365,376.888C244.461,376.568 245.229,376.199 246.251,375.876C246.673,375.898 246.843,375.873 247.294,375.837C247.816,375.539 248.056,375.253 248.585,374.971C249.253,374.921 249.633,374.866 250.261,374.815C250.821,374.643 251.007,374.379 251.299,373.997C251.532,373.967 251.976,373.817 252.243,373.859C252.687,373.872 252.865,373.844 253.35,373.882C254.077,373.965 254.496,373.984 255.008,374.241C255.397,374.602 255.692,374.725 256.321,374.903C257.452,374.585 258.248,374.211 259.325,373.798C260.082,373.452 260.558,373.146 261.314,372.821C262.043,372.472 262.492,372.141 263.187,371.813C263.758,371.671 263.956,371.423 264.333,371.043C265.134,370.705 265.628,370.398 266.45,370.041C267.558,369.591 268.337,369.191 269.429,368.853C270.486,368.56 271.231,368.205 272.409,367.903C273.63,367.683 274.419,367.409 275.602,367.237C276.239,367.464 276.481,367.589 276.722,367.713C276.575,367.897 276.429,368.08 276.139,368.585C270.538,371.23 265.08,373.555 259.293,376.031Z" style="fill:rgb(255,189,10);fill-rule:nonzero;stroke:rgb(255,189,10);stroke-width:5.75px;"/>
                <path d="M342.795,337.154C340.402,337.633 338.01,338.112 335.281,338.304C336.723,337.003 338.501,335.988 340.646,334.912C341.413,334.877 341.812,334.904 342.511,334.88C343.155,334.742 343.499,334.655 343.978,334.32C344.111,334.072 344.595,333.984 344.833,333.917C345.987,333.427 346.903,333.004 347.964,332.283C349.494,330.976 350.88,329.968 352.621,328.895C353.343,328.944 353.636,328.844 354.192,328.214C354.714,327.612 354.9,327.326 355.086,327.04C355.251,327.018 355.417,326.995 355.83,326.92C356.64,326.774 357.203,326.68 357.908,326.321C359.921,325.263 361.794,324.47 363.841,323.382C364.181,323.054 364.346,323.02 364.752,322.913C365.491,322.582 365.989,322.323 366.975,322.005C367.464,321.947 367.918,321.917 367.918,321.917C368.047,322.046 368.176,322.175 368.287,322.723C367.46,323.743 366.652,324.343 365.513,324.954C364.117,325.637 363.051,326.311 361.618,327.012C358.801,328.345 356.351,329.65 353.525,330.969C349.699,333.039 346.247,335.097 342.795,337.154Z" style="fill:rgb(255,189,10);fill-rule:nonzero;stroke:rgb(255,189,10);stroke-width:5.75px;"/>
                <path d="M334.652,337.982C332.325,339.959 329.677,342.033 326.905,343.926C326.019,344.531 324.804,344.654 323.361,345.022C324.06,344.137 325.039,343.057 326.237,342.35C328.86,340.803 331.594,339.445 334.652,337.982Z" style="fill:rgb(255,189,10);fill-rule:nonzero;stroke:rgb(255,189,10);stroke-width:5.75px;"/>
                <path d="M317.234,348.317C317.347,347.435 317.744,346.854 318.305,346.057C319.78,345.361 321.09,344.88 322.728,344.694C321.21,346.197 319.365,347.408 317.234,348.317Z" style="fill:rgb(255,189,10);fill-rule:nonzero;stroke:rgb(255,189,10);stroke-width:5.75px;"/>
                <path d="M170.888,385.128C170.626,384.297 170.365,383.467 170.039,381.861C170.253,376.066 170.531,371.045 170.898,365.622C170.637,363.498 170.286,361.776 169.894,359.748C169.566,358.953 169.28,358.463 168.881,357.644C167.533,356.848 166.298,356.382 165.071,355.664C165.114,355.246 165.148,355.081 165.539,354.928C168.803,354.578 170.418,352.923 170.877,349.688C171.023,348.866 171.104,348.397 171.318,347.886C171.621,347.754 171.745,347.62 172.178,347.256C173.075,345.733 173.618,344.399 174.522,343.015C176.621,339.323 178.361,335.681 180.1,332.039C183.829,325.786 187.559,319.532 191.798,313.285C192.438,313.416 192.568,313.54 192.498,313.912C192.254,314.776 192.21,315.391 192.1,316.362C190.991,318.468 189.95,320.217 188.627,322.077C187.927,323.002 187.507,323.816 186.776,324.83C183.937,330.331 181.411,335.632 178.648,341.022C178.327,341.406 178.244,341.703 178.102,342.274C178.072,342.734 178.1,342.918 177.995,343.348C177.626,344.067 177.391,344.542 177.079,345.357C175.732,347.397 174.463,349.097 173.121,351.14C173.079,351.945 173.11,352.408 173.021,353.19C172.654,355.002 172.406,356.495 172.092,358.352C172.065,359.458 172.103,360.198 172.096,361.203C172.089,361.644 172.126,361.819 172.096,362.37C172.073,363.503 172.117,364.261 172.116,365.255C172.072,365.491 172.2,365.953 172.12,366.372C172.078,368.207 172.115,369.623 172.092,371.367C172.078,372.134 172.125,372.573 172.106,373.409C172.08,374.871 172.122,375.939 172.097,377.336C172.08,378.111 172.13,378.556 172.112,379.327C172.085,380.094 172.124,380.535 172.098,381.384C172.311,382.816 172.733,384.75 172.848,384.732C177.171,384.053 176.496,388.05 178.102,390.357C180.489,391.155 182.689,391.626 184.97,392.32C185.223,392.843 185.481,393 185.99,393.313C187.113,393.447 188.072,393.285 189.343,393.07C190.148,392.706 190.641,392.394 191.455,392.051C192.515,391.621 193.254,391.224 194.325,390.896C195.106,390.922 195.554,390.879 196.267,390.952C197.009,391.333 197.486,391.598 198.334,391.929C199.457,392.042 200.208,392.089 201.044,392.375C201.432,392.689 201.734,392.763 202.31,392.961C203.065,392.778 203.547,392.471 204.355,392.09C205.453,391.619 206.224,391.22 207.243,390.878C207.659,390.903 207.826,390.871 208.24,390.898C208.651,390.922 208.816,390.886 209.239,390.901C209.668,390.915 209.839,390.878 210.269,390.85C210.721,390.581 210.913,390.302 211.334,389.999C211.564,389.974 212.009,389.851 212.239,389.914C212.47,389.976 212.944,389.932 213.091,390.116C213.237,390.301 213.57,390.632 213.453,390.843C213.111,391.302 212.986,391.593 212.623,392.071C209.994,393.532 206.143,392.767 205.989,396.935C203.352,395.932 200.786,394.58 198.057,394.035C195.891,393.603 193.527,394.159 190.686,394.635C188.423,395.273 186.725,395.553 184.832,395.521C183.421,395.179 182.205,395.149 180.639,395.043C177.154,391.687 174.021,388.408 170.888,385.128Z" style="fill:rgb(255,189,10);fill-rule:nonzero;stroke:rgb(255,189,10);stroke-width:5.75px;"/>
                <path d="M193.958,307.364C196.183,305.531 198.248,304.025 200.313,302.519C200.313,302.82 200.312,303.121 200.311,303.422C202.339,303.422 204.367,303.422 206.599,304.043C205.826,305.105 204.614,306.159 203.911,305.888C199.417,304.16 197.186,307.021 194.607,310.096C193.774,311.389 193.236,312.527 192.698,313.664C192.568,313.54 192.438,313.416 192.112,313.106C192.544,311.177 193.171,309.434 193.958,307.364Z" style="fill:rgb(255,189,10);fill-rule:nonzero;stroke:rgb(255,189,10);stroke-width:5.75px;"/>
                <path d="M209.564,300.938C210.602,299.235 211.64,297.532 212.858,295.487C213.46,295.103 213.883,295.06 214.803,295.158C215.421,295.42 215.542,295.54 215.473,295.849C215.125,296.356 214.967,296.673 214.55,297.086C213.836,297.748 213.379,298.312 212.57,299.067C211.332,299.817 210.448,300.378 209.564,300.938Z" style="fill:rgb(255,189,10);fill-rule:nonzero;stroke:rgb(255,189,10);stroke-width:5.75px;"/>
                <path d="M215.095,294.248C215.588,293.704 216.015,293.387 216.916,292.977C217.39,292.885 217.885,292.881 218.047,293.041C218.209,293.201 218.533,293.521 218.363,293.753C217.782,294.389 217.373,294.793 216.721,295.167C216.175,295.262 215.903,295.436 215.662,295.66C215.542,295.54 215.421,295.42 215.12,295.119C214.939,294.939 215.029,294.475 215.095,294.248Z" style="fill:rgb(255,189,10);fill-rule:nonzero;stroke:rgb(255,189,10);stroke-width:5.75px;"/>
                <path d="M209.208,300.634C208.913,301.94 208.276,302.882 207.307,303.94C207.606,302.794 208.236,301.532 209.208,300.634Z" style="fill:rgb(255,189,10);fill-rule:nonzero;stroke:rgb(255,189,10);stroke-width:5.75px;"/>
                <path d="M238.037,382.684C233.7,384.03 229.432,385.132 224.726,386.251C224.164,386.15 224.04,386.032 223.954,385.585C224.662,384.45 225.333,383.645 226.264,382.885C226.7,382.901 226.874,382.872 227.351,382.911C228.754,382.931 229.855,382.883 231.271,382.878C231.795,382.884 232.004,382.847 232.494,382.864C233.208,382.645 233.641,382.374 234.337,381.981C235.062,381.525 235.525,381.189 236.308,380.917C237.062,380.965 237.497,380.948 237.931,380.931C237.931,380.931 238.293,381.233 238.458,381.409C238.451,381.87 238.278,382.155 238.037,382.684Z" style="fill:rgb(255,189,10);fill-rule:nonzero;stroke:rgb(255,189,10);stroke-width:5.75px;"/>
                <path d="M223.273,388.042C220.083,388.882 217.146,389.601 213.89,390.476C213.57,390.632 213.237,390.301 213.223,389.816C214.137,388.832 215.066,388.332 216.343,387.79C217.791,387.442 218.89,387.137 220.313,386.796C221.43,386.451 222.222,386.141 223.237,385.887C223.459,385.943 223.916,385.914 223.916,385.914C224.04,386.032 224.164,386.15 224.45,386.47C224.25,387.089 223.888,387.505 223.273,388.042Z" style="fill:rgb(255,189,10);fill-rule:nonzero;stroke:rgb(255,189,10);stroke-width:5.75px;"/>
                <path d="M238.035,128.884C236.248,127.982 234.462,127.08 232.357,126.031C228.225,123.423 224.411,120.961 220.596,118.5C220.83,118.196 221.063,117.892 221.297,117.589C219.38,116.969 217.463,116.349 215.759,115.341C217.961,114.971 219.96,114.881 221.936,115.054C222.829,115.132 224.442,115.757 224.431,116.094C224.236,122.354 230.255,121.858 233.994,124.789C238.125,126.702 241.645,129.075 244.989,124.83C246.428,125.153 247.867,125.477 249.522,126.246C249.166,128.462 248.594,130.232 247.734,132.293C246.362,131.278 245.279,129.972 244.15,128.611C243.446,128.731 242.316,128.924 240.884,129.08C240.384,129.085 240.185,129.126 239.746,129.108C239.506,129.05 239.022,129.158 238.778,129.08C238.368,128.963 238.201,128.923 238.035,128.884Z" style="fill:rgb(255,189,10);fill-rule:nonzero;stroke:rgb(255,189,10);stroke-width:5.75px;"/>
                <path d="M221.122,287.036C222.695,285.536 224.267,284.036 226.039,282.249C228.47,281.273 230.702,280.584 233.392,279.885C233.851,279.875 234.07,280.074 234.023,280.402C232.96,281.805 231.944,282.88 230.702,283.99C230.476,284.026 230.028,284.125 229.78,284.156C229.208,284.369 229.047,284.645 229.024,285.002C228.999,284.988 229.047,284.959 228.763,285.048C228.243,285.454 228.008,285.77 227.459,286.088C226.384,286.735 225.621,287.382 224.588,288.219C222.39,290.113 220.462,291.817 218.533,293.521C218.533,293.521 218.209,293.201 218.099,292.702C219.033,290.481 220.078,288.758 221.122,287.036Z" style="fill:rgb(255,189,10);fill-rule:nonzero;stroke:rgb(255,189,10);stroke-width:5.75px;"/>
                <path d="M238.657,275.893C239.001,276.147 238.983,276.318 238.687,276.838C238.146,277.395 237.97,277.662 237.62,278.112C236.868,278.833 236.379,279.428 235.638,280.043C235.222,280.092 235.057,280.121 234.688,280.11C234.485,280.071 234.07,280.074 234.07,280.074C234.07,280.074 233.851,279.875 233.731,279.779C235.173,278.392 236.734,277.101 238.657,275.893Z" style="fill:rgb(255,189,10);fill-rule:nonzero;stroke:rgb(255,189,10);stroke-width:5.75px;"/>
                <path d="M232.657,197.885C233.312,197.425 233.638,197.019 234.001,196.325C235.148,195.352 236.259,194.666 238.086,193.96C239.849,193.908 240.895,193.877 242.245,193.797C243.382,192.862 244.217,191.975 245.295,191.03C245.696,190.919 245.855,190.867 246.277,190.792C246.769,190.499 246.996,190.23 247.522,189.974C248.215,189.943 248.61,189.899 249.24,189.833C249.772,189.652 249.965,189.41 250.316,188.96C251.063,188.246 251.55,187.658 252.278,187.021C252.518,186.972 252.992,186.841 253.276,186.796C254.063,186.187 254.567,185.623 255.413,185.015C256.828,184.596 257.901,184.219 259.337,183.863C260.842,182.588 261.985,181.293 263.491,179.992C269.113,179.291 269.904,173.983 273.401,171.024C278.209,166.491 282.652,162.026 287.462,157.193C287.041,156.813 286.019,155.887 284.854,154.625C283.298,153.117 285.13,149.149 280.872,150.135C280.381,150.13 280.185,150.162 279.702,150.03C277.954,148.965 276.492,148.064 274.769,147.029C273.993,146.645 273.479,146.395 272.718,146.023C271.997,145.643 271.524,145.387 270.799,145.069C270.379,144.975 270.209,144.943 269.833,144.634C267.417,143.624 265.207,142.889 262.725,141.968C261.294,140.907 260.134,140.032 258.7,139.018C257.619,138.307 256.812,137.737 255.666,137.144C255.103,137.127 254.877,137.133 254.37,137.146C253.72,137.157 253.351,137.161 252.65,136.993C251.544,135.873 250.771,134.926 250.367,133.988C252.12,134.323 253.503,134.649 255.063,135.28C256.15,135.669 257.061,135.753 258.275,136.003C260.369,137.154 262.16,138.137 264.152,139.392C266.606,140.719 268.859,141.776 271.396,143.02C273.724,144.165 275.768,145.123 277.972,146.35C278.727,146.708 279.322,146.796 280.303,146.942C282.138,147.214 283.588,147.429 285.362,147.72C286.765,148.542 287.844,149.288 289.041,150.296C289.501,151.017 289.844,151.476 290.129,152.315C291.418,157.626 289.293,160.831 284.658,163.107C283.615,164.134 282.39,164.916 282.238,165.868C281.557,170.141 278.616,171.949 274.671,173.249C273.216,174.869 272.074,176.412 270.638,178.107C268.602,180.166 266.859,182.072 265.059,184.211C265.002,184.444 264.92,184.918 264.61,184.82C261.84,185.403 258.04,185.342 257.175,186.905C254.772,191.249 250.922,191.94 246.666,193.081C245.923,193.89 245.446,194.538 244.733,195.206C244.207,195.404 244.033,195.659 243.988,195.997C244.002,196.002 243.993,195.974 243.755,196.069C243.322,196.437 243.127,196.712 242.595,196.842C240.841,196.519 239.425,196.34 238.009,196.16C234.593,197.83 231.176,199.499 227.365,201.093C227.25,200.548 227.529,200.078 227.921,199.355C228.197,199.064 228.361,199.027 229.047,198.883C230.047,198.468 230.523,198.16 231,197.851C231.442,197.881 231.885,197.91 232.657,197.885Z" style="fill:rgb(255,189,10);fill-rule:nonzero;stroke:rgb(255,189,10);stroke-width:5.75px;"/>
                <path d="M160.289,454.854C156.767,451.429 149.93,449.597 146.44,450.918C144.723,451.568 142.338,451.592 140.644,450.92C137.302,449.596 134.23,447.59 130.785,445.285C129.503,444.24 128.221,443.195 126.305,441.823C125.204,441.593 124.103,441.364 122.306,440.742C122.183,439.804 122.059,438.867 122.607,438.003C123.055,437.979 123.504,437.956 124.518,438.421C126.356,438.891 128.193,439.361 130.658,440.212C131.772,445.255 135.594,446.463 140.59,447.131C141.057,447.807 141.523,448.483 142.345,449.768C144.252,449.197 146.159,448.626 148.871,448.001C151.225,448.36 153.58,448.718 156.348,449.729C159.935,448.889 161.642,450.082 164.385,451.811C165.162,451.432 165.595,452.084 167.07,451.817C168.505,451.121 169.595,451.543 171.795,450.968C173.524,450.587 175.254,450.207 177.753,449.966C178.533,449.928 179.314,449.889 180.781,450.006C182.484,451.294 184.607,449.431 186.847,450.813C185.132,446.354 191.03,452.531 193.438,451.998C194.301,451.686 195.164,451.374 196.554,450.971C196.724,450.918 196.894,450.864 197.816,450.939C199.949,450.285 202.484,448.581 204.125,449.21C207.034,450.324 208.789,449.075 211.527,447.865C212.289,447.548 213.05,447.23 214.548,446.919C216.05,445.335 217.551,443.751 219.722,442.049C220.171,441.988 220.619,441.927 221.697,441.98C222.118,441.932 222.539,441.884 223.747,441.951C225.113,441.76 226.483,441.59 227.845,441.372C230.896,440.884 233.944,440.372 237.691,439.962C238.785,439.684 239.879,439.406 241.357,439.751C245.249,438.204 249.141,436.657 253.641,435.02C254.11,434.722 254.579,434.425 255.807,433.997C259.219,432.615 262.631,431.233 266.552,429.873C266.725,429.593 266.898,429.313 267.004,429.008C267.004,429.008 267.042,429.069 267.523,428.985C267.523,428.985 267.991,428.849 268.485,428.988C268.655,428.967 268.824,428.946 269.585,429.473C269.059,430.038 268.532,430.603 267.429,431.186C266.959,431.511 266.488,431.836 265.278,432.042C261.181,433.748 257.083,435.454 252.285,437.264C248.544,438.568 244.804,439.871 240.345,441.054C239.234,441.422 238.122,441.791 236.299,442.235C234.531,442.884 232.763,443.532 230.223,444.041C227.453,444.326 224.682,444.612 221.275,445.212C219.054,446.987 220.194,447.502 217.973,449.277C218.051,449.91 214.284,451.515 214.362,452.148C216.497,452.568 166.294,454.434 160.289,454.854C160.318,454.882 160.346,454.91 160.375,454.939C159.475,454.939 159.516,454.908 160.289,454.854ZM16.078,283.279L15.996,281.547C19.764,281.236 23.526,280.834 27.248,280.228C32.218,279.417 37.088,277.993 42.678,276.768C44.101,276.88 45.524,276.993 47.215,277.711C50.011,280.08 47.335,280.668 45.907,280.887C42.504,281.407 38.954,281.122 35.612,281.848C31.412,282.761 27.36,284.358 23.244,285.66C24.257,286.906 25.407,287.156 26.56,287.162C29.712,287.179 32.868,287.155 36.018,287.035C41.392,286.828 46.764,286.555 52.132,286.232C52.458,286.213 52.744,285.514 53.689,285.034C54.113,284.962 54.537,284.89 55.651,284.944C56.744,285.6 57.837,286.257 58.31,287.216C56.528,288.202 54.745,289.187 52.199,290.053C50.788,290.325 49.378,290.597 47.14,290.974C42.623,291.656 38.079,292.205 33.606,293.105C32.305,293.366 31.203,294.628 30.013,295.436C29.184,295.999 28.431,296.846 27.519,297.084C24.375,297.904 21.176,298.512 17.307,299.275L16.868,299.785C17.06,303.683 17.182,305.992 17.219,306.406L17.231,306.407C17.728,306.095 17.62,304.338 19.035,303.97C25.988,303.24 32.942,302.51 40.677,301.954C42.144,301.683 43.612,301.411 45.774,300.76C47.844,300.489 49.915,300.217 52.53,300.693C50.766,304.413 52.501,305.401 56.08,305.855C61.277,309.242 64.922,305.253 69.04,303.942C70.328,304.627 71.601,305.864 72.908,305.901C78.936,306.07 84.974,305.904 91.757,305.721C95.837,304.763 99.918,303.805 104.813,302.984C107.558,302.266 110.302,301.547 113.772,300.958C114.754,300.93 115.736,300.902 117.351,300.891C117.874,300.546 118.396,300.201 119.732,299.997C120.56,299.956 121.387,299.914 122.948,299.978C124.606,299.67 126.265,299.362 127.996,299.686C127.968,300.109 127.94,300.532 127.291,301.324C126.198,303.269 125.104,305.214 123.331,307.239C122.271,309.124 121.212,311.009 120.019,313.784C119.903,315.546 119.787,317.307 119.174,318.646C119.083,318 118.992,317.355 118.471,316.138C113.564,317.307 115.52,322.013 113.293,325.279C110.773,335.605 104.596,344.928 104.907,356.06C104.934,357.038 103.63,358.053 102.556,358.207C102.649,355.805 102.742,353.402 102.972,350.266C103.019,349.522 103.066,348.779 103.666,347.786C103.816,347.207 103.965,346.628 104.762,345.669C105.178,344.282 105.547,342.879 106.018,341.512C108.027,335.686 110.065,329.871 112.741,323.666C112.771,322.423 112.8,321.181 113.143,319.346C113.428,318.319 113.712,317.291 114.62,315.889C115.426,313.983 116.232,312.077 117.776,310.009C119.08,307.969 120.384,305.929 121.877,303.593C118.269,303.4 116.118,303.285 113.162,303.055C108.44,304.092 103.717,305.129 98.177,306.023C95.111,306.725 92.044,307.428 88.357,308.035C87.743,308.065 87.128,308.095 85.534,308.001C80.686,307.728 75.838,307.454 70.319,307.045C69.867,307.085 69.415,307.125 68.486,307.056C68.486,307.056 68.01,307.171 67.357,307.046C67.137,307.075 66.917,307.104 66.069,307.032C65.038,307.644 64.007,308.255 62.489,309.011C62.329,309.068 62.169,309.125 61.352,309.048C60.91,309.089 60.468,309.13 59.326,309.035C58.854,309.079 58.382,309.124 57.295,309.019C56.559,308.658 55.823,308.298 54.812,307.364C54.207,307.301 53.603,307.238 52.25,307.016C51.501,305.979 50.908,304.75 49.952,303.963C49.184,303.33 47.976,303.232 46.363,303.003C45.897,303.302 45.431,303.602 44.308,303.987C43.872,304.048 43.436,304.108 42.398,304.043C41.919,304.323 41.44,304.603 40.466,304.998C40.305,305.05 40.144,305.103 39.33,305.029C38.891,305.074 38.452,305.119 37.337,305.034C36.883,305.078 36.428,305.121 35.148,305.028C32.765,305.41 30.382,305.792 27.336,306.043C26.89,306.088 26.443,306.132 25.206,306.028C24.137,306.075 23.068,306.123 21.34,306.032C20.895,306.078 20.45,306.123 19.365,306.024C18.932,306.065 18.499,306.106 17.231,306.407C17.231,306.496 17.227,306.495 17.219,306.406C15.792,306.319 14.389,304.923 12.36,305.029L16.868,299.785L16.773,297.83C18.497,297.574 20.224,297.317 21.881,296.841C24.509,296.085 28.113,296.674 29.122,292.583C29.318,291.791 31.561,291.202 32.916,291.064C35.313,290.821 37.752,290.996 40.174,290.996C40.167,290.725 40.161,290.454 40.154,290.183C39.035,290.091 37.917,290 36.075,289.536C33.661,289.345 31.082,288.511 28.865,289.084C22.345,290.769 20.679,289.685 21.165,283.279L18.418,283.364M10.792,278.02C12.458,277.754 16.409,278.004 20.719,274.975C21.819,274.592 22.918,274.209 24.675,273.966C25.12,273.926 25.565,273.886 26.838,273.977C29.892,273.595 32.946,273.212 36.77,272.975C41.153,270.924 45.535,268.874 50.613,266.957C51.08,266.914 51.548,266.871 52.498,266.877C52.816,266.72 52.998,266.465 53.639,265.838C54.42,265.505 55.201,265.172 56.499,264.93C56.671,264.899 56.844,264.868 57.506,264.885C57.826,264.723 58.011,264.464 58.715,264.012C59.15,263.952 59.585,263.892 60.598,263.823C61.065,263.492 61.533,263.161 62.661,262.958C63.444,262.584 64.228,262.21 65.617,261.962C66.1,261.676 66.583,261.391 67.657,261.008C68.117,260.708 68.577,260.408 69.779,260.012C70.522,259.951 71.265,259.89 72.611,259.956C73.095,259.676 73.578,259.397 74.653,259.012C75.11,258.709 75.568,258.407 76.784,258.007C79.498,256.623 82.212,255.239 85.519,253.887C85.991,253.537 86.463,253.187 87.461,252.955C87.636,252.917 87.812,252.879 88.691,252.759C89.796,252.45 90.901,252.141 92.498,251.949C92.663,251.913 92.828,251.876 93.663,251.972C94.114,251.924 94.564,251.875 95.501,251.949C95.664,251.911 95.827,251.873 96.603,251.82C97.419,250.919 98.235,250.017 99.797,249.019C100.545,248.954 101.292,248.89 102.572,249.073C103.056,249.333 103.539,249.593 104.669,249.781C105.452,249.464 106.234,249.147 107.595,248.825C108.062,248.494 108.528,248.163 109.644,247.796C110.422,247.475 111.2,247.153 112.493,246.941C112.665,246.905 112.836,246.868 113.506,246.946C113.672,246.908 113.839,246.869 114.585,246.845C115.052,246.511 115.52,246.176 116.501,245.906C116.693,245.632 116.884,245.357 117.737,245.008C118.175,244.951 118.614,244.893 119.554,244.871C119.736,244.6 119.919,244.329 120.566,243.975C120.566,243.975 121.015,243.831 121.597,243.845C122.102,243.261 122.608,242.678 123.789,242.026C124.56,241.692 125.331,241.357 126.541,240.849C126.812,240.656 126.987,240.398 127.741,240.019C128.518,239.698 129.295,239.376 130.544,238.994C130.859,238.942 131.175,238.914 132.255,238.837C132.663,238.54 133.071,238.244 133.45,237.991C133.45,237.991 133.438,237.939 134.23,237.928C134.492,237.899 134.755,237.871 135.563,237.889C135.77,237.597 135.978,237.306 136.671,236.779C137.109,236.471 137.547,236.163 138.577,235.958C139.062,235.681 139.547,235.405 140.684,235.002C141.467,234.613 142.25,234.225 143.506,233.918C143.506,233.918 143.984,233.856 144.567,233.784C145.067,233.475 145.567,233.165 146.765,232.914C147.857,232.545 148.949,232.176 150.673,231.689C151.808,231.089 152.943,230.489 154.685,229.958C155.155,229.671 155.626,229.384 156.803,229.02C158.233,228.365 159.664,227.711 161.831,226.99C166.554,225.269 171.276,223.549 176.651,221.782C177.438,221.468 178.225,221.154 179.523,220.96C179.693,220.919 179.863,220.878 180.79,220.738C181.196,220.803 181.603,220.868 181.865,221.538C180.91,222.074 179.954,222.61 178.338,223.042C177.56,223.42 176.783,223.797 175.212,224.033C170.451,225.988 165.689,227.943 160.198,229.98C158.125,230.944 156.052,231.907 153.203,232.949C151.116,233.627 149.029,234.306 146.21,235.064C142.167,237.359 138.123,239.655 133.72,241.369C132.791,241.904 131.862,242.44 130.444,243.107C130.28,243.148 130.116,243.188 129.261,243.297C126.162,244.492 123.062,245.687 119.271,247.208C116.855,247.867 114.439,248.527 111.352,249.047C110.223,249.661 109.093,250.275 107.242,250.995C106.154,251.295 105.065,251.596 103.368,251.804C102.564,251.833 101.761,251.862 100.265,252.257C98.542,252.838 96.855,253.594 95.087,253.958C92.465,254.5 89.785,254.764 86.426,255.181C82.938,257.09 79.451,258.999 75.159,261.003C73.825,261.667 72.55,262.513 71.147,262.964C63.747,265.345 56.316,267.626 48.124,269.995C47.164,270.113 45.688,269.876 45.325,270.404C42.398,274.663 38.09,274.076 33.87,274.052C33.178,274.048 32.483,274.634 30.989,275.005C25.925,275.753 20.856,276.476 15.794,277.243L15.996,281.547C14.249,281.692 12.5,281.816 10.753,281.933C8.968,282.052 7.125,281.312 5.308,280.965C5.261,280.469 5.213,279.972 5.165,279.476C7.039,278.981 8.887,278.323 10.792,278.02ZM326.541,6.195C321.612,6.195 374.375,3.197 384.038,4.567C387.363,5.039 384.517,14.418 384.517,14.418C383.968,14.654 383.325,14.872 382.41,15.037C381.901,15.329 381.392,15.621 380.088,16.002C379.092,16.322 377.98,16.459 377.126,17.001C375.315,18.15 373.639,19.51 372.09,20.649C371.238,23.262 370.237,26.333 368.965,30.234C368.485,29.785 368.968,30.535 369.637,30.78C370.349,31.041 371.236,30.822 372.649,31.147C374.718,33.36 376.788,35.574 379.391,37.884C379.57,37.853 379.748,37.821 380.645,37.98C381.487,39.256 382.33,40.532 382.943,42.447C381.949,43.346 380.956,44.246 379.312,45.03C378.546,45.42 377.78,45.809 376.205,46.051C375.111,46.083 374.016,46.116 372.281,46.023C371.851,46.073 371.42,46.123 370.483,46.143C370.342,46.429 370.201,46.715 370.007,46.915C370.007,46.915 369.907,46.897 369.245,46.975C368.805,47.03 368.364,47.086 367.264,47.067C366.162,48.336 365.06,49.605 363.353,50.983C362.874,51.299 362.394,51.615 361.186,51.995C360.459,52.052 359.733,52.108 358.344,52.038C357.899,52.081 357.454,52.124 356.298,52.037C355.58,52.067 354.862,52.097 353.553,52.048C353.358,52.08 353.163,52.113 352.314,52.017C351.538,52.304 350.763,52.591 349.429,53.01C349.244,53.059 349.059,53.109 348.236,53.07C347.48,53.437 346.725,53.804 345.394,54.22C344.914,54.536 344.433,54.852 343.357,55.061C342.67,55.417 341.982,55.774 340.586,56.104C340.258,56.438 339.931,56.772 338.98,57.059C338.357,57.086 337.734,57.114 336.443,57.191C335.306,57.839 334.169,58.486 332.279,59.012C331.123,59.396 329.968,59.78 328.038,60.059C327,60.103 325.963,60.147 324.357,60.254C323.877,60.568 323.398,60.881 322.23,61.06C321.436,61.365 320.642,61.669 319.105,61.981C318.366,62.047 317.626,62.113 316.254,62.077C315.829,62.116 315.404,62.156 314.301,62.065C313.616,62.109 312.93,62.153 311.618,62.09C311.409,62.124 311.201,62.157 310.376,62.081C309.963,62.111 309.55,62.141 308.586,62.019C308.395,62.021 308.204,62.022 307.678,61.588C307.754,61.231 307.829,60.874 308.523,60.085C308.763,60.013 309.003,59.941 309.807,60.011C310.504,60.296 311.2,60.581 312.541,60.66C314.034,59.8 315.527,58.941 317.322,58.735C318.475,59.088 319.653,59.807 320.777,59.73C324.835,59.453 327.704,56.993 330.887,54.424C333.274,54.554 335.662,54.684 338.712,54.917C339.834,54.295 340.956,53.674 342.653,53.011C343.032,52.954 343.411,52.898 344.499,52.843C345.937,52.175 347.375,51.506 349.419,50.927C349.622,50.902 349.826,50.878 350.64,50.765C351.451,50.195 352.262,49.625 353.063,49.021C353.063,49.021 353.034,49.037 353.697,49.246C356.473,49.192 359.249,49.139 362.667,48.782C364.821,46.86 366.975,44.939 369.576,42.74C370.026,42.5 370.476,42.261 371.048,42.665C371.533,43.056 372.019,43.447 372.504,43.838C372.684,43.184 372.863,42.53 372.96,41.436C372.96,41.436 372.825,41.01 372.965,40.206C372.664,38.518 372.363,36.83 371.43,35.129C371.251,35.714 371.073,36.3 370.246,36.618C369.2,32.926 366.766,31.492 362.409,31.834C362.491,30.349 362.572,28.865 362.638,27.672C364.796,26.743 367.023,25.785 369.545,24.699C367.708,22.375 366.414,20.738 365.751,18.797C367.19,17.821 368.63,16.845 370.77,15.998C371.478,15.951 372.186,15.904 373.659,15.966C375.097,15.589 376.535,15.211 378.656,14.76C379.582,14.144 380.507,13.529 381.977,12.987C382.337,12.94 382.698,12.894 383.69,12.961C383.74,11.969 383.789,10.978 383.791,9.341C383.155,8.606 382.519,7.871 381.458,6.879C381.047,6.641 380.636,6.403 379.509,6.032C379.03,6.077 378.55,6.123 377.377,6.146C375.391,6.144 373.406,6.141 370.516,6.003C365.675,6.391 360.833,6.779 355.507,7.048C355.507,7.048 355.022,7.162 354.372,7.035C352.911,7.079 351.449,7.122 349.248,7.293C346.184,7.576 343.12,7.86 339.127,7.999C334.7,8.312 330.272,8.625 325.051,8.981C323.34,9.307 321.628,9.633 319.179,9.674C312.458,10.717 305.736,11.761 298.243,12.949C295.822,13.011 293.4,13.073 290.155,13.079C281.071,16.101 271.987,19.123 262.182,22.073C260.427,22.715 258.672,23.357 256.16,23.983C252.689,25.669 249.218,27.356 244.997,29.012C242.221,30.385 239.445,31.758 236.192,33.477C235.18,34.667 234.168,35.858 232.916,37.467C232.732,37.762 232.467,37.929 231.89,37.522C231.546,37.607 231.201,37.692 230.798,37.726C230.798,37.726 230.721,37.732 230.114,37.665C227.463,39.215 224.812,40.764 221.48,42.384C219.256,43.903 217.031,45.422 214.262,47.375C213.492,49.223 212.722,51.07 211.256,53.264C208.897,53.869 206.537,54.474 204.746,54.537C204.778,54.019 204.81,53.501 205.151,52.402C206.45,51.306 207.748,50.209 209.566,48.995C209.737,48.949 209.909,48.903 210.639,48.758C211.126,48.194 211.612,47.63 212.621,46.792C212.775,46.232 212.93,45.672 213.647,44.853C214.426,44.186 215.205,43.52 216.564,42.814C217.044,42.493 217.525,42.172 218.572,41.79C219.064,41.224 219.556,40.657 220.589,39.851C221.072,39.514 221.554,39.176 222.629,38.752C223.426,38.215 224.223,37.679 225.602,36.859C226.687,36.185 227.772,35.511 229.428,34.849C229.671,34.572 229.914,34.295 230.614,33.835C230.882,33.621 231.058,33.348 231.569,32.981C231.569,32.981 231.974,32.841 232.579,32.826C233.327,32.158 234.075,31.491 235.505,30.791C236.677,29.804 237.849,28.818 239.709,27.924C240.788,27.556 241.866,27.187 243.632,26.936C244.093,26.898 244.554,26.86 245.587,26.795C246.069,26.219 246.551,25.643 247.763,25.009C248.854,24.714 249.945,24.418 251.686,23.797C253.429,23.137 255.172,22.477 257.495,21.813C257.975,21.49 258.454,21.167 259.561,20.974C260.066,20.683 260.57,20.393 261.701,20.021C262.117,19.972 262.532,19.923 263.676,19.797C267.113,18.146 270.55,16.494 274.643,14.791C275.437,14.469 276.231,14.148 277.822,13.963C282.209,12.582 286.596,11.2 291.663,10.201C293.788,10.151 295.914,10.101 298.872,10.02C308.364,8.708 317.857,7.395 326.541,6.195Z" style="fill:rgb(255,189,10);fill-rule:nonzero;stroke:rgb(255,189,10);stroke-width:5.75px;"/>
            </g>
            <path d="M17.623,3.196L20.764,1.7L24.7,0.987L27.715,0.872L28.221,1.159L27.842,1.551L27.163,1.7L27.404,2.955L26.852,3.795L22.433,4.946L21.363,5.348L21.697,5.855L22.916,6.269L25.344,7.776L26.38,8.778L27.128,9.733L27.807,9.491L28.325,9.445L28.06,9.974L27.416,10.596L27.393,11.332L27.934,11.493L28.29,11.493L28.118,12.748L27.082,14.462L25.77,16.948L25.126,18.398L23.618,19.238L22.583,19.514L21.754,18.835L21.604,17.961L21.547,17.512L20.385,17.961L18.843,18.95L17.692,19.871L16.702,20.815L16.242,21.206L15.862,21.102L15.287,22.103L14.539,23.795L14.148,24.647L14.194,25.912L14.424,26.764L15.034,27.017L15.931,27.121L17.209,26.798L21.351,25.164L24.735,23.461L27.554,22.092L27.692,22.391L26.944,23.07L26.622,23.726L26.656,24.635L25.862,25.314L24.562,26.971L23.676,27.593L22.79,28.364L21.57,29.008L19.453,30.009L17.623,30.458L16.046,31.137L14.642,31.125L13.1,31.01L11.915,30.826L10.431,29.595L9.97,28.766L9.556,27.27L9.544,26.039L9.591,24.75L10.258,22.46L10.914,21.079L10.177,20.953L8.428,21.217L7.208,21.194L6.691,21.263L6.058,20.838L5.321,20.93L4.193,20.964L4.815,20.044L5.367,19.169L6.622,18.478L8.014,17.972L9.096,17.546L11.961,16.488L14.389,15.602L17.059,14.393L18.797,13.645L20.5,12.598L21.156,11.758L21.754,11.148L21.501,10.573L20.833,10.308L19.222,9.422L18.106,8.939L17.047,8.248L16.288,7.661L15.459,6.441L15.54,5.279L16.23,4.198L17.623,3.196Z" style="fill:rgb(255,189,10);"/>
        </g>
    </g>
</svg>
